<mxfile host="Electron" modified="2024-06-06T10:46:06.528Z" agent="Mozilla/5.0 (Windows NT 10.0; Win64; x64) AppleWebKit/537.36 (KHTML, like Gecko) draw.io/24.4.13 Chrome/124.0.6367.207 Electron/30.0.6 Safari/537.36" etag="3h8rI8zPqNiZ-jwTtIJC" version="24.4.13" type="device">
  <diagram id="R2lEEEUBdFMjLlhIrx00" name="Page-1">
    <mxGraphModel dx="844" dy="1661" grid="1" gridSize="10" guides="1" tooltips="1" connect="1" arrows="1" fold="1" page="1" pageScale="1" pageWidth="827" pageHeight="1169" math="0" shadow="0" extFonts="Permanent Marker^https://fonts.googleapis.com/css?family=Permanent+Marker">
      <root>
        <mxCell id="0" />
        <mxCell id="1" parent="0" />
        <mxCell id="zW4kSUlHfjS2kDcvc-NE-50" value="&lt;div title=&quot;Page 1&quot; class=&quot;page&quot;&gt;Support Ticket Verwaltung&lt;/div&gt;" style="text;whiteSpace=wrap;html=1;fontSize=18;" parent="1" vertex="1">
          <mxGeometry x="42" width="760" height="40" as="geometry" />
        </mxCell>
        <mxCell id="zW4kSUlHfjS2kDcvc-NE-111" value="" style="shape=image;imageAspect=0;aspect=fixed;verticalLabelPosition=bottom;verticalAlign=top;image=data:image/png,iVBORw0KGgoAAAANSUhEUgAAAWgAAABYCAYAAADY6G3MAAAACXBIWXMAAAsTAAALEwEAmpwYAAAj+UlEQVR4Ae2dCZQdxX2vJaGNfZGQ0L5LSIQdsxhkKSCMwS/2sw02DmAwSSDYYBM7yXkvfieYxCtJnJxjNjvHxBveOHn42A+bVRJCgAGzSSBAEtKMdgSSWLUv7/uGW0NPT/edOzNXYpD+/3M+uru6urr6V1W/rlv3jui+Y8eObhGhQCgQCoQCXU+BHl2vSlGjUCAUCAVCARUIg45+EAqEAqFAF1UgDLqLNkxUKxQIBUKBMOjoA6FAKBAKdFEFwqC7aMNEtUKBUCAUCIOOPhAKhAKhQBdVIAy6izZMVCsUCAVCgTDo6AOhQCgQCnRRBcKgu2jDRLVCgVAgFAiDjj4QCoQCoUAXVSAMuos2TFQrFAgFQoEw6OgDoUAoEAp0UQXCoLtow0S1QoFQIBQIg44+EAqEAqFAF1UgDLqLNkxUKxQIBUKBMOjoA6FAKBAKdFEFwqC7aMNEtUKBUCAU6NkJCfbi2iEwBl6D+fAmlIX5+8Ng6A2vwzJ4AyJCgVAgFAgFcgp0xqDHUdY5MAo2wGyYDkUm7Uz9aDgbBsE2MF6AO2GRBxGhQCgQCoQC7yjQUYPenyKOrBTzU7bOpMdDIzwN+diPBM87W74PhsOJoMkPgGXwR3gONkFEKBAKhAJ7vALtNei+KHYAHA5jK/ua7RrQWAdCL9gC2XDG7Hm36+At6A7OrPeGYTAIXAZ5HCJCgVAgFNjjFajVoDVSZ8BngLNew3Xn1fAquJ68FVxb1mTzBq0hO0v22pEwA+ZCionsTANN2pfARogIBUKBUGCPVqBWgz4MlU6DA+H34Jqxs2aXLDTj94EzYdefN0NRNJD4Ejhb9svCFZDCJZA+sB7y5p7yxDYUCAVCgT1KgVoNWkPdF1wndvabNVGN2V9mOIPWgLdDUWjea0GDtizDZY5RcBJo7I3gMkhEKBAKhAJ7vAK1GrQzW42zHzjbdR05hWvSh4DmuyolFmxd/vBay3EJw2N/2fFBMPw1R4M7EaFAKBAKhALdutVq0MsQawG4zHEwPFk51pRdcxZNt2z2zKnmLwJdHnH92lnzmeCs+y4wvdr1nI4IBUKBUGDPUaBWg9Z8HwKXIU6F8+FluBvmg18UDoXDQPPNx/4kTIQd8AKMBsvRlF3T1qSLwl+EuO7tEotfVJrP2Xu9jHwwZV0Abq1btXA5xnvfAw9XMvq8n4KRUMv1fpl6H8yCiN1XAX86+nHw1075vmo/8kvz+8G+tLtHGiOjeNAiLRzTvwK9oENx4403Tty+ffvA7t2758tvKm/jxo3zvvzlL7/S3sK/+93vujpwdI8ePWyzFsH9uu/YsWPLAQcc8MQll1yyscXJOh7UatDe0i8EZ8IfYCScDs6At8BCGAn+SqMR8hX23HBYAM66/TWIyyazocicNeZRcCrYyV0aMVbCvfAEbIbOxkAK+Az8SY0FWVefNxn0EPavgAlQS1h/Tfq9aNB+SjoIfNnmX0bdSXPpSuPxJZY/T9IeFS4Fngv286JwcrMV7ik6uZulHcrznA8nlzzXPNIdTx026G3btl3bs2fP87ZuVdKWgWl369Onz8dI/XXLM20fYcBHcf19bHtBiwsw7W6Y9LoNGzacwIkO171FoQUH7TFoL7eWG+A52AQfhiNBo10Oo2EoLIQUafa8nQRn25qaM1YbZgXsDQ5wy3OQa5qTwQfXDP8Iz0APMN2/XuwLNqrXdCasU+tWLS+xN6dcbzc0LJ/N+tca6tee+9Va7q7IZ7v8DVwILXvr23f3Be5M6KtgO+7J0VY7t3V+d9LOMeY4Lgu1ME+HA/PER7t3k3yYljfXfJ42jpvKzuep3Kv1DfMZO3ncXoPO3m4pB8/DsdAfFsAwGAtLIM1wR7E/HDRnP2b8Kfhg/pLjYhgEhrPuNyGZoLNoG8/Z6WHwFNwFp8IU0OgegWqNz+m6hnVyFmkdfWEcDGl2z+5uHfYVl5tsi6LYh0S1iQgF8gp0yoDzheWPMUs8eEc1I+7Q/Smzx1577cXkvGersp1BM3Pvw/mdatKdMWiNcSFooJqySx/OiJ1FO8NuBAe0SxSaqQbt4B4BrtGJ6a+BRqxhm2ad1oMfA0WjN/0j8Dw8CRrlVPDc47CrZmzWLf2SxXunfXZ3+7CT215lYRvaJ3ZVW5TVI9K7lgL2C3nXosm9O3B3rlvGMsZ3Nm/e3NOXQLYIzjmzfmvLli2vZtPrvd8Zg7YuGvIiOAKcPS2AqTAOlsNIcFb9AqyCyaDZGk/BvaAJO/hdttDQXTLYAD54WsLow75LHl4/GB4A1/dEU3gaOvSW5LqyWMOJF8E/wklvSV8MadbsR3r3nU2n0MDUxE8Kx6XEgq3P6EvNZ9lWcN7O4IvLpZ2NlfMupxwFzlRbdJbKeZ//JfAllsrci/0hcAocD7aL+luG+V0zXgnz4DFwOWk1ZMO8voQnwvDsidy+2oyAs0AdbL+54IssG37ysA4ngxqNrxzb/j6Xa/TL4Fl4FOaAn6zyYZv4gjwS7MdFmnidkwW1PACmwFTweZbCbaBGRdeqoW05v3LeervMMwlSf2C3RdgXF7dI6diB/eNo+ACo0Qiw/Q3Hhu3smLLNHoZGyId1PASOgD6Qf0bb3zFqOfbjsyvYR3zWJTAd7oCi8klu0sE+/D9gMhwG9in70e/gcTC817sWzHabn/2GG26wv6lpP0x2PQb8wrp16x695pprWk0+rr766kXk+3KtFb/22mt7TJo0qcOeet5551mHFlp1uLBKpTVQTXlsBTuMnWcMaMh2Zu9h2khQHDuLA3cWmL4vHA6ajwPqITA9G97HwboQHDhrwQc5B86q7Ftmi4fjuDNhR9O4rJuD23Aw+xJxsGg8/SEbmqkDdA3YCcpiP058HL4KzZ2H/RQOLjv3Z8A6eF/LuxU03KJrXib9BvgaGEPhMrgYhkNb4fN4r5vhp+DzG8PgG/AhD6qE7egzfQys3wNwHlivFBrcpRXsIz5ntdCMNCCf6zeQHURqciL8EtQzr4ll+2nrcjD+GU4HXyTJSCeyPwXy15LU9GL8NdtLQG3sA5+Cf4MeUHSNZnc1NEJHwrppzH8P6m0/K4sPc0I9GuAnYLuthhSOO/X5AQyCfH19af0I/hPU5iOwF6R4HzumXQBfgZmQDcs/Cf4FTsmeYN/r1P16uAuy7cbhrg1mupu///3vH8hM+GvsX8CyxMEuUWDQ3fhicVO/fv0e4BcbX7zqqqvs/81x/fXXn0Cen3FNT/Nmo3L9a7179/7oZZddtsRzhx566PtfeumlH+fzZq8r26ecbrw8rv385z9vmzSHInc2llFAA4yF52A+TINPguXvDQ5Un9AOYCd6GpbDAHDQ2JH6wFpYCp7Lh4Mqa9yLOL4TNGnvtwmeh3qFg3IlaLYHZAq1nhrzW2D9s2EdrLvXVot1nPRFtAIGl2TUdDTWeeA9NVxfDobmkw91vQ+2wwT4GpwLtUZvMh4DXjcC/gk2gvcquh/JhZHypm3KNJada+HPU0INW/uO/eMI0Ew1g6y23iPdJ21Jaoo0oo7k6FI49e3kpv+qkf3sfpgMPSAf6jEQDoFVsA+oS8qbv5/1mg+PwGHQ3tCcrct/gHWuJXqSSV3/HpxIfAmsawrrmOqZtuncNnbsx1eBL9WisE6OTQ26oQKbphjHf/83nPL2Yav/DiHli2C9LOddCcxyOybcn/Xin/Brjj9jSaKbpMB8+/Tq1Wsaabdj0mdg0svSOa61/43FjF3kTslNW0y+G4b/xqZNm7LPtg95R+Xztriw5KBi+AflT6fOlk9vz/EGMi8AG/wDYOdyAGiWv4Nfwe1gx9VEngE7sg92LBwPGlBHYiEX3V258DS2gztSSMk1m0lfCa/kzltXB27aZk+v52AJvNMDsmff2XdG8SLMeiep1V4yBE94r0GwrwcF4X196T0FDjpfiNXM2fbxZVIUXv8JOLNy0oGtEbQnvEaDS6YwgP2L4M+hI6HefwGfLLi45ch5J4PP6LP8JZz6TnLTnvV6Ex4E26EonEw4YNTdsD2GNe0V/8d+MgNeLT7dZuoYcvwN1GrO2QLtF9PgCsiO6TJtvNbnORHKzNk8hm2vyZ7jQSW8n9eenhJKtr6obPcyEy+5rK7J9oN/xFD/DDP1p3EtCtdMMdpumPR4zNoXXHNwTv22ek0eDN9fjWzlC8RmjU3zkiLy1xcdU14aL811yDZmc2IHdpZwzWIYDYfCdPhveBgeAweBjaoxzYfXKscOXDtKZ8KXg+bvfSdB9o3GYYdD4d+AxlwJfTm23m41jmw4q1aHWnR9mXzq5IugKHx7J0NwX6No1YCVCzWHWeD9rZODtSh8cWhKZ4F5XDYoCo1NU/N+Gs7dYHuqdVlYti/lW+EncAdsBLUYB2Xm7HVPwj/AN6DsHkM5dz44o60lNFivKTMHR+oiULeysM8mg05tUJTXvrISZhadrCHNvnQUnF6Q13ouhR/AzfAMFEU/Es8Ejb6W8HlsF/tyW+GLyomUZm0cDCeBZbQVtr/P925FT8x5goZY4H/NdfI31Bjrxyp/nNKc3p4drt/CfV5n2wzXv8axk4HSsF5ctwOW5DMlwfPp7T12IG+DFTAb/gh27KkwAWzITXAPaNaGxmTFNe3O1MP7zgc722h4DpZDPSIZbrasPhzYqZ0hpiWHdH49Oxr6iSmhylbzfwLmwTEF+dILwK0vseEFeUxyAC+D6R4Q1fLaBt7PvJbroHeb9Lcdxee2TAeXxnMdaHaaqDoXhdf8HlrMQjhWo+NgFBSFbfe3kOqkWf8naArZ6MXBWNAYvE8t4bOUhedcUrNPfhrULR/2W59bHayPfboofHbb8tmikzWk7U+ew8E6aPbZaOTgq/Bj8KUzGW6BvJ7WUZO2nLKXHKdaxXZS7Bf2gzK97OsDwJfjajgAJkK1WMfJhTAYhlTLuCvOYZIbuE8fzLAH+61uWUkbxnk/wTzYKkMNCX379p3NLH0sSynNN2DpROP9N2boFxf9IY3F+jM+ZvE/58vK3+RvkwZmPr29x761J4ENYie1M0+F8bAIbNTFlf3NbA3N2bwjwYHXmVjDxQ1wAjig6mHQiuzAWwLZ0Cj6w6HgDCvFVnZ8TmezDpZawhfavVBk0L4I7NgO3n1gJBTF6yQ+AuqbwpdWUexH4kfBAfkLmAV3QmoTdpvMOnWwbDkOXg2iWnhestd5z3GVdDYtYgtHjeAL3bBez8NzcArkIxlDrQadvz577PN4f/ug5noa5EPdh4HjRHMaCEXxEon3geV1JGzDX4LtmLS3HPdfhWc8IDRK+51mWhSmH1Z0oiRN7b8FD8Bn4EtQ5An2Z/u6eqibW+tRFo6/b8MP4YNwA5Rpx6mdF64Vs/QwmztcDodjxD/EhPfPm7THrAPvRd6J5HuwIzXiy0Lb30/GzcEXjWdhwJ9y+aMorB/GvYB7/13RL0mKGqOonGppGohGbOUcWG+BbyGN0gedAVkD4LA5FrL3a7ARJ4Ed1Zlle8Onfwmsgx10b9gAnYk0gJ1BWief01AzZxPDwY6aQnNZAS7f1GrQa8jr4LgUNIBs9OLAQWC6g6Ns4K3mnOaQeoD3fwHGQlFY9yvhMlgF82EOaFKPgC/U7VCvqGYamvlx8EtI9fdZy+ruS8uBbtu0N3wm+4TX2j7qa9hvpkOZQQ/nnM8wrLJl0yKsdyPMbpHavgP7jm0m2bCvOdlxPB0Fp8NZkO8rJDWFz6VGtcRWMjn+fgtqcDdcAEMgH2pmWyUcC9m+n8//CgkPgePGZ/I+ttsuD40XE7z5c5/7nJ8c57GEcSmG+eHsF4WpUs5kme0OTsed3fJvhDhmr4e++ReCZbu0QWzAnK+kfnpHq7ADdDYGUYAsh2XgLGcUpMax09j5x8CzoFDrwXDQLIZfwEjQyD3uSPiRynseCA7yehi0nViD1kjtlIaaaZwOWO+TYiM7Gp7X+My1hM9rB9YYzy64wEGglhpEun82m9cvgD9kEq3vb8DBvHcmPb/bmwTNR6aBbeHAuhNugEehHqER2ieKQp3sxB8qOlmQpvbqoFHUGm+R0UnCjeCLyDLGgm2nua6FWaBu9uNsqNEAsI5Doahd7XcPgv2/s2F7Hw+23ftgPPhpzfRajZesNYXtbZ91UrMDNkFbY0ZHEeuiNmVheWpreB/76bsSGK5ry47fpmDf9ioMDROz3K/wZAcSmRl/i5/PjS16GVicLwTO/Tu/HLm7rHg7a2fCDmuntsGWwpswEjRJ38oOeAfCaDgRjgbTH6+QxHLW9zR0Juxs4gC2Q3c2UmfU9FfDyEqBauZsQGPLGoUvnUZob1j2PXAm5NtDg1U7O3xRx9FcHoDmDsi+9dWgR8BVoB61hG2pGV0Ex8GXwHp1NtQxq1NReb7U2grLcdCrRa2hMcyEv4asgebbqYHzmuy5kA3rfTCMhCFQFPbn+4pOtCNN7TXjr8AnwHYvCtt2EQwGJwn1iqRp2rZVrm1hncvC89nIH2fP7fR9TLf5/phw837RjTH0tvpq0WWt0vhN8/nM3C8qW3dmTVpzfoA832x1cSYhbwiZUzXtaoS+4TVGzdjQkC33dfCt7OB7GXw72/E0Nk1d49AANPV6hINXelWoR5mW4QzMQeELxrABfYb8rNDnMF97w5eTM+DFMC53sfo6cC27qOOsJL3IRFeR/g2YAZ+GKTAMekNbYQe2HpfDI2A71hJlHX87F9sPisK+4T3+GXzBpSgzCtvXF5rbIj3S9Wn7Ejt3wPKUULI1313wEchq5DPZzoeDL+V82O+fhcfzJ9p5bNv8LVxYcp3GfC/cDGp2E9TToCmuXaH+tmtZ5Nsvf1x2XXO6f/GHse6PYba4VrNlFryaJYGlzZnb2MmWgT+3KC9/KWVXe6589sJj6j6Ccq6jrj2cweeDZNfF12DOX+A5qvpfZw06e+/0RrVG4gCyg28BzdmOlcJzDoRaBlm6pq2t90omUbUR2ioodz4ZdDZ5bw4kGwpdc6fJXKhWy+A+yBt0X9LGg/rlw/s9CfPyJyrH1ttBbbl+otFkjoeT4BQYBWX6+4loDIyAuVBL2P7W1zIdwCmcxaZPSiktbX12X+z3g2ZX71CDhTUUqpZPgFrmv7D1k8sRMATy4cRjOlQdZPmLcseOQbX+UC49HfryuBG+A2o0FYo+TZG8S8I2s03LXrpWwj5gXzB8vlo/xTVd4H8wtu9hZKflDQ5T607aDWT5YnPmKjtOmCH70i31PEzVJQ77TIfjtttu24v6/Ssz5GFlSxvWiTz/h78afKqtG5VWtq0LK+d9mFUwFvzY9SI447IB/WjoDFDTHAo2ksbpjNGKza7ss2n6uKQpGDa8naC94bOInbieg11zdAam6djxisLndSCtBT9BtDeSSV3IhdnB50vgKMgaXipbc5gJ2WfVJL3eL5bUOqGets0z4GAfCOfDV6A/FIVaHlB0oiTNug6vXOPzpFjPzrJ0kNuqp/ewb6Tn8IV0DYwE658N+9Zv4eZsYpX9rZyrdcDZj6dD3qDtx5NhGGTDutkvfLl0Jnpx8WEV8uV4j6Xw3+BLQNOzPrbvuxX2RetSTVf7wWXg+D8TJkG7ArP0HyiSFtdVzK1sHLbI6wGG7lLCeXw5OJM130EknVL2iwrTuW+277Yqr62ElStXfpZ7nltmzpWljZ+vXbv2+22V5XkHYWfCDtQIzjBGw/PgbMmPoSNBQTyvmWgQzsaeBPPY0IaN6KA4Fcx3D9jx2xsOcnkVNIV6hS8MlxIst19JoeaxzubZtyRPtWRfAkmbyZmMvvmLZm5qtwTuz+R1V7O7CL4JmnWKZHRzSPgc2AYzwLxlBu0z2U7Z0OjLwr50InwbbodFMB/egGdBA06zKnabwoE2Fj4Jt4D6fgY+Dd0hH5rVbyE9T/58/th8teZ1YKrJJXAIpPCFNzEdZLa+LB6DBZm0juzaTrZztr1SOWowAOwTDXA4XAyOmXczNGfHalkcyIlLwP7VIY/BiPHK1v+EqGmeo9yawjVgZsUXct2xGPBBXDskPyu3oIrx7yBvQ00FF2S66aabJnD91wtONSVxzp/ULcKk/2HKlCk9+PdB7P9NgbHb1tvzP7XrkHiVMtPGmYcfIx2cDraHKsdj2J4AmtaDMAsc9NlB7mxgCrwfNDbRkDS79oazQg3aAVPt7d7ecp0dr4C1oIEUheZjni1FJ2tMe4l894KDsa1Q04chr5NGvwScOTpI8nE0Cf8B0+FY+BMoCsuxTS0rxTZ2TK8WGtuloIl4j/NB3Z4Gzazo2YaR/i34LPSCSVBkzt5/EdwJOyNsZ/vOI3B2DTdYTR7by3p1JmwrzV5ti4x3OOnXwV+D48Vj79k8uNnf1WF9femeXuXGtmHyl+3s96iSd6ed0ng1RuIIzb3InNPNOf8m+eem4/ZsWdrozQvgOmbpA8pmz94f+mLS/zV37tykTdNtBgwY0J30F/gX8S7PmnSLTO2pUCavHewF0Jw1AE3Dwe2bfxocA2/A8zALNDKjN2gSJ4PGbNjpOtKQB3GdLwQH2VLojFFyeYvwbW39fa5xLc68c+ALoeGdww7tabqzwfsMaaOEMnPwBTgHfgMXFZSxN2kfqFBwujlpGXs/Az/KptjIjvetJRycWQNZzPEPwP7hLD8fzlKPzyfmjhs5vgksa2dFekl+kBtk65+/n/1rEfiS7GzYZ5fAfHCsFIUTD7WzHz4EPcEJUT56kWDenR2+dH32SyGN3aJ7+iLx2dTqjKIMOzOtMit+BVNcwbLDUdXM2aUQDPJxjNK+3+5YvXq1f/xyTNnyiQVq0LwsBkv+Bv7kjvsfNGjQoBaTk46YYb5sj1fAU+DH5dPhELABHeQzQNOcBFPBWYBhw1rRznYon2ECjAI7ggO51lCMahqkcxpwNWPInrdMKYuyge+LrgHuL7uwkq4Jz4M/luRrJP1f4NewvSRPWfIOTjiL/DrckcvkrOlxWJJLLzvMPqdG/1v4R9AE2xMOcmfg/wt+lbtQnbP3yZ2u2g75vB77jPZb+1G10KBsp5dLMlmv1HeKsmTPq7n3uxU067KwfzwJftooawNffkeAL2Kjmj7pnFsjHb991PK/nvOlkMLZ/iPgRKBaOGa+A3pDtUh1yObBX9/+31gVbPP5C/M6c+aEE4u/w5xXuf5bFObTvNnexL/JbH/LRmHZ1onI12O76dXQpDXxIriu1cQyK3q2Uu3d780Fdg4Hix3EGdFMsOM5m+4Lk2EijAfNxQ6n2ShItUHG6aoxmrMngYPGjmDnqTW8/1Ioekn4JtV4DWcull1k0g6wFyANGkV2plmUV3NaB2XhgL8fPg5qVhRrSHwAXis6Sdp2mAt/Af8TLoBj4CAoMw07cQP8Dn4IXp8P2+tB+Cu4GI6EfSHfSUlqalP1sy4pbJ/vgW1/KUyDgdAH8uF1mrq63g4a84uQD/PYx/bJn6gcWwefrdbwvsthFoyrctEqzs2ocl6jXQFFfcDLXgH1SOH+j6AnXAlDIMUOdjxv2/wrrIRJcDzkw7yHwgnwB0gTB3XKh/3UZ7VdDcdNI1RrT69J0cDO1ysHH2FrX0jhuLKdr4NH4XIo08I2Khqz/ity2zG0bB/SSO3DLUwUYyvL67P0Ynb6GLPT87n2e/zhyARNUgzNGbPcBN/mD0Zua0qs/IdzZNuxBd5eEM+crKRtxfSbCuLf4dixfv36raRvg7cLz+Rva9fn4rLUFs3ZvXHzQSd2RnPtOWBHsNH9+GVHsYMopqKKRr4Afg9L4Aj4MIwAw454B9i5agln4GfDALADz4H2PJANaJ2KOqUdw7qnzuBLpBfkw/uJndetZTnQzJ8Pz1teq4aoZPTak+BnMKqSlt/Y8T8Lz+RPlBz7fMNhHKjXIaD5W5fXYTU0gmao/rWG7ake1rko1C9pkj+vNv1gAgwF67QPeI118kW2GBaBfagsUp8qO295au221vBlfT7cCLZjPtaT8H/hMigyFvOridpYv6Io6wdeMxzeV9lazgqYA/MgGWQtz+1Lolo+6yCpjbyXfaWoPfN5ydYctpvLL2I76gHPwRPgZMLyysYDp5raJjvOTPMfr3fN2C/1WrQdaT7TiiuvvHJxU8a3844n/dB8Xky3O+a85eWXX36add3N/uk1aeeSbyr5B3LpRkx4Dmm3f+ELX5idykvbW265Zf+33nrrCPK00iSVzXYOxr6JteOe/fv3P4rjviyXqFe7wufiujeuuOIKJ0fN19fDoG3UPwUbaEal8MmVrefsKMvBpQ0Nwk74EEwHz40Brx8PNqgG7UfatqI/GT4EXn8PPAplxsep90w4M/o5jCuoseb1U7ga0mAtyBZJnVBAw/kE/ADsq/loIOEa+HH+RByHAvVWoGiG0N57DOICTdKPXs7ATgE/VvpG8mOwxvw49AENdSQcBeZ/CuZDA/gR3Lflq1AUnvdjlB/tnYFNgbHwAPi2fq+as8/kc2gMw+DjMAKKQs3+H4Q5F6nTsTRnZPZR28AJhX32YigyZ/vYQrgPIkKBna5Az07ewU7sTG8/0ITt6Bq203Q/Mtvhz4AJ4LJFAwwA850FB4IdXmPuA4eBM2NnikthDWwCr5kGfoS6H7zegeTH/UegPeuMZO9SoX4/Al9a1eINTvoymlktU5xrtwL2YT/B3Qr212qxgpO/guXVMsW5UKBeCnTWoDXUMeCa4StwImiomq7LF4vgcBgPC2AxjAbzOHP5KKQ6dGdfozY852zF9Sxni74A3J8NmvPJ4DrXg2D6ez3Sc5c9xzZOzIHvQtm6Z9m1kd62AjvI0lYb+IK8C37RdnGRIxSojwLJHDtS2l5cpDm79ODMbn8YAs/DMjDWgUZ6BmjSj8FK0GTvBs1mIBjOmv1CyI/5p8EgMJxFPwQavB/9T4UGmAGW/14PX0zO4spCjWbC10GTjqi/Avblam3g0t2t8E3QqCNCgV2iQGcMWjN2dvwyrILjwVmva8rZJQdnzcthHGiy4kdKzVaTbYRsmHcJaNJHw1Bw+eM4OASeBWcyq2F3CD8BuFTzWuZh1NG1eLWaCb6gNImI+ivgzNm+5CSjd6X4HWz9BGjffgqmw+Ngu0SEArtMgY78ikNTHwzTQPO8E9bDB+FFuKdyzKY5jmXP/Jrrk5X9A9j6i40GKIpeJDqLPgJcFnHZYy54fdbMOIwIBUKBUGD3U6A9M+i9eXy/mHs/uAyhKd8HzvKmgrOOhWB6PhaTsAzGg/ld9jgLTgHNtmipYgvpzqQlIhQIBUKBPU6BWg3aj34ngWvJfiS/F56BFeAacj/wi0KXJ4rCj+ua8hDQpGeDyxVToC/cDWXXcioiFAgFQoE9T4FaDVpjdanBGfLvwLW5FK7hOXtuK1xrdq3asvxVhmt+rvOdDp+G38M8qKUsskWEAqFAKLB7K9Cjxsdzvdg1YWfMzoaz4bfaLlE4ix6QPZHb94tDr/Wl4B9lbIBZ8AvQ5D8AwyEiFAgFQoFQAAVqNWh/QaChugZ9PPjlnSbrT8T8aZzLE/7SYiCYVhSuYR8EW8GyDI35OXgYnFWPhFrrRNaIUCAUCAV2XwVqXeJw5vwI+MXehbAJXgGXOlyW0HDXgzNtjTr7MzsOm2IE/z0MNGSvTeGShjNwy9gfekPR9SRHhAKhQCiw5yhQq0FvQxL/SMKf0fWHSeDvkv3CT2N1bdmZs/mcFefD2bbLFxr7IhgGY8Fr/JJwNJjH35qaJyIUCAVCgT1egVoNWqE0Xteb05qzs2WXOpxB+8WfBuuM2i/+8uH6teedLTvDnggng/d3tux108GXQHxJiAgRoUAoEAp05A9VkmquR58DA8F15cfgHsh/iUhS078+dyJbl0g0dvNr1I1wFzwPzr4jQoFQIBQIBSoKdMagnRWPAWfDfono7LfoD05IbgrXloeCa9Eua3iNyx1rwNl5RCgQCoQCoUBGgc4YdKaY2A0FQoFQIBSotwLxk7Z6KxrlhQKhQChQJwXCoOskZBQTCoQCoUC9FQiDrreiUV4oEAqEAnVSIAy6TkJGMaFAKBAK1FuBMOh6KxrlhQKhQChQJwXCoOskZBQTCoQCoUC9FQiDrreiUV4oEAqEAnVSIAy6TkJGMaFAKBAK1FuBMOh6KxrlhQKhQChQJwXCoOskZBQTCoQCoUC9FQiDrreiUV4oEAqEAnVSIAy6TkJGMaFAKBAK1FuBMOh6KxrlhQKhQChQJwXCoOskZBQTCoQCoUC9FQiDrreiUV4oEAqEAnVSIAy6TkJGMaFAKBAK1FuBMOh6KxrlhQKhQChQJwXCoOskZBQTCoQCoUC9FQiDrreiUV4oEAqEAnVS4P8Dj/G9WSJyUR4AAAAASUVORK5CYII=;" parent="1" vertex="1">
          <mxGeometry x="40" y="1011.56" width="280" height="68.44" as="geometry" />
        </mxCell>
        <mxCell id="zW4kSUlHfjS2kDcvc-NE-115" style="edgeStyle=none;curved=1;rounded=0;orthogonalLoop=1;jettySize=auto;html=1;exitX=0;exitY=0.75;exitDx=0;exitDy=0;fontSize=12;startSize=8;endSize=8;" parent="1" source="zW4kSUlHfjS2kDcvc-NE-50" target="zW4kSUlHfjS2kDcvc-NE-50" edge="1">
          <mxGeometry relative="1" as="geometry" />
        </mxCell>
        <mxCell id="DTemFWxccj9VY1IdhOBA-10" value="(c) 2024 Heiko Fanieng&lt;br style=&quot;font-size: 8px;&quot;&gt;http://www.fanieng.com&lt;br style=&quot;font-size: 8px;&quot;&gt;https://github.com/hfanieng/retraining" style="text;strokeColor=none;fillColor=none;html=1;align=right;verticalAlign=middle;whiteSpace=wrap;rounded=0;fontSize=8;fontColor=#C0C0C0;" parent="1" vertex="1">
          <mxGeometry x="482" y="1040" width="320" height="40" as="geometry" />
        </mxCell>
        <mxCell id="IDN8DsUS1KAStJDrSiUo-1" value="roles" style="shape=table;startSize=20;container=1;collapsible=1;childLayout=tableLayout;fixedRows=1;rowLines=0;fontStyle=1;align=center;resizeLast=1;html=1;strokeColor=#4D4D4D;fillColor=#4D4D4D;" parent="1" vertex="1">
          <mxGeometry x="37" y="110" width="119" height="60" as="geometry" />
        </mxCell>
        <mxCell id="IDN8DsUS1KAStJDrSiUo-2" value="" style="shape=tableRow;horizontal=0;startSize=0;swimlaneHead=0;swimlaneBody=0;fillColor=none;collapsible=0;dropTarget=0;points=[[0,0.5],[1,0.5]];portConstraint=eastwest;top=0;left=0;right=0;bottom=1;" parent="IDN8DsUS1KAStJDrSiUo-1" vertex="1">
          <mxGeometry y="20" width="119" height="20" as="geometry" />
        </mxCell>
        <mxCell id="IDN8DsUS1KAStJDrSiUo-3" value="PK" style="shape=partialRectangle;connectable=0;fillColor=none;top=0;left=0;bottom=0;right=0;fontStyle=1;overflow=hidden;whiteSpace=wrap;html=1;fontColor=#7EA6E0;" parent="IDN8DsUS1KAStJDrSiUo-2" vertex="1">
          <mxGeometry width="30" height="20" as="geometry">
            <mxRectangle width="30" height="20" as="alternateBounds" />
          </mxGeometry>
        </mxCell>
        <mxCell id="IDN8DsUS1KAStJDrSiUo-4" value="&lt;div&gt;&lt;span style=&quot;text-wrap: nowrap;&quot;&gt;role_id&lt;/span&gt;&lt;br&gt;&lt;/div&gt;" style="shape=partialRectangle;connectable=0;fillColor=none;top=0;left=0;bottom=0;right=0;align=left;spacingLeft=6;fontStyle=1;overflow=hidden;whiteSpace=wrap;html=1;fontColor=#7EA6E0;" parent="IDN8DsUS1KAStJDrSiUo-2" vertex="1">
          <mxGeometry x="30" width="89" height="20" as="geometry">
            <mxRectangle width="89" height="20" as="alternateBounds" />
          </mxGeometry>
        </mxCell>
        <mxCell id="IDN8DsUS1KAStJDrSiUo-5" value="" style="shape=tableRow;horizontal=0;startSize=0;swimlaneHead=0;swimlaneBody=0;fillColor=none;collapsible=0;dropTarget=0;points=[[0,0.5],[1,0.5]];portConstraint=eastwest;top=0;left=0;right=0;bottom=0;" parent="IDN8DsUS1KAStJDrSiUo-1" vertex="1">
          <mxGeometry y="40" width="119" height="20" as="geometry" />
        </mxCell>
        <mxCell id="IDN8DsUS1KAStJDrSiUo-6" value="" style="shape=partialRectangle;connectable=0;fillColor=none;top=0;left=0;bottom=0;right=0;editable=1;overflow=hidden;whiteSpace=wrap;html=1;" parent="IDN8DsUS1KAStJDrSiUo-5" vertex="1">
          <mxGeometry width="30" height="20" as="geometry">
            <mxRectangle width="30" height="20" as="alternateBounds" />
          </mxGeometry>
        </mxCell>
        <mxCell id="IDN8DsUS1KAStJDrSiUo-7" value="role_name" style="shape=partialRectangle;connectable=0;fillColor=none;top=0;left=0;bottom=0;right=0;align=left;spacingLeft=6;overflow=hidden;whiteSpace=wrap;html=1;" parent="IDN8DsUS1KAStJDrSiUo-5" vertex="1">
          <mxGeometry x="30" width="89" height="20" as="geometry">
            <mxRectangle width="89" height="20" as="alternateBounds" />
          </mxGeometry>
        </mxCell>
        <mxCell id="IDN8DsUS1KAStJDrSiUo-8" value="&lt;div&gt;&lt;span style=&quot;background-color: initial;&quot;&gt;users&lt;/span&gt;&lt;br&gt;&lt;/div&gt;" style="shape=table;startSize=20;container=1;collapsible=1;childLayout=tableLayout;fixedRows=1;rowLines=0;fontStyle=1;align=center;resizeLast=1;html=1;strokeColor=#4D4D4D;fillColor=#4D4D4D;" parent="1" vertex="1">
          <mxGeometry x="240" y="50" width="119" height="120" as="geometry" />
        </mxCell>
        <mxCell id="IDN8DsUS1KAStJDrSiUo-9" value="" style="shape=tableRow;horizontal=0;startSize=0;swimlaneHead=0;swimlaneBody=0;fillColor=none;collapsible=0;dropTarget=0;points=[[0,0.5],[1,0.5]];portConstraint=eastwest;top=0;left=0;right=0;bottom=1;" parent="IDN8DsUS1KAStJDrSiUo-8" vertex="1">
          <mxGeometry y="20" width="119" height="20" as="geometry" />
        </mxCell>
        <mxCell id="IDN8DsUS1KAStJDrSiUo-10" value="PK" style="shape=partialRectangle;connectable=0;fillColor=none;top=0;left=0;bottom=0;right=0;fontStyle=1;overflow=hidden;whiteSpace=wrap;html=1;fontColor=#7EA6E0;" parent="IDN8DsUS1KAStJDrSiUo-9" vertex="1">
          <mxGeometry width="30" height="20" as="geometry">
            <mxRectangle width="30" height="20" as="alternateBounds" />
          </mxGeometry>
        </mxCell>
        <mxCell id="IDN8DsUS1KAStJDrSiUo-11" value="&lt;div&gt;&lt;span style=&quot;text-wrap: nowrap;&quot;&gt;&lt;font style=&quot;font-size: 12px;&quot;&gt;user_id&lt;/font&gt;&lt;/span&gt;&lt;br&gt;&lt;/div&gt;" style="shape=partialRectangle;connectable=0;fillColor=none;top=0;left=0;bottom=0;right=0;align=left;spacingLeft=6;fontStyle=1;overflow=hidden;whiteSpace=wrap;html=1;fontColor=#7EA6E0;" parent="IDN8DsUS1KAStJDrSiUo-9" vertex="1">
          <mxGeometry x="30" width="89" height="20" as="geometry">
            <mxRectangle width="89" height="20" as="alternateBounds" />
          </mxGeometry>
        </mxCell>
        <mxCell id="IDN8DsUS1KAStJDrSiUo-12" value="" style="shape=tableRow;horizontal=0;startSize=0;swimlaneHead=0;swimlaneBody=0;fillColor=none;collapsible=0;dropTarget=0;points=[[0,0.5],[1,0.5]];portConstraint=eastwest;top=0;left=0;right=0;bottom=0;" parent="IDN8DsUS1KAStJDrSiUo-8" vertex="1">
          <mxGeometry y="40" width="119" height="20" as="geometry" />
        </mxCell>
        <mxCell id="IDN8DsUS1KAStJDrSiUo-13" value="" style="shape=partialRectangle;connectable=0;fillColor=none;top=0;left=0;bottom=0;right=0;editable=1;overflow=hidden;whiteSpace=wrap;html=1;" parent="IDN8DsUS1KAStJDrSiUo-12" vertex="1">
          <mxGeometry width="30" height="20" as="geometry">
            <mxRectangle width="30" height="20" as="alternateBounds" />
          </mxGeometry>
        </mxCell>
        <mxCell id="IDN8DsUS1KAStJDrSiUo-14" value="user_first&lt;span style=&quot;background-color: initial; font-size: 10px;&quot;&gt;_name&lt;/span&gt;" style="shape=partialRectangle;connectable=0;fillColor=none;top=0;left=0;bottom=0;right=0;align=left;spacingLeft=6;overflow=hidden;whiteSpace=wrap;html=1;fontSize=10;" parent="IDN8DsUS1KAStJDrSiUo-12" vertex="1">
          <mxGeometry x="30" width="89" height="20" as="geometry">
            <mxRectangle width="89" height="20" as="alternateBounds" />
          </mxGeometry>
        </mxCell>
        <mxCell id="IDN8DsUS1KAStJDrSiUo-15" value="" style="shape=tableRow;horizontal=0;startSize=0;swimlaneHead=0;swimlaneBody=0;fillColor=none;collapsible=0;dropTarget=0;points=[[0,0.5],[1,0.5]];portConstraint=eastwest;top=0;left=0;right=0;bottom=0;" parent="IDN8DsUS1KAStJDrSiUo-8" vertex="1">
          <mxGeometry y="60" width="119" height="20" as="geometry" />
        </mxCell>
        <mxCell id="IDN8DsUS1KAStJDrSiUo-16" value="" style="shape=partialRectangle;connectable=0;fillColor=none;top=0;left=0;bottom=0;right=0;editable=1;overflow=hidden;" parent="IDN8DsUS1KAStJDrSiUo-15" vertex="1">
          <mxGeometry width="30" height="20" as="geometry">
            <mxRectangle width="30" height="20" as="alternateBounds" />
          </mxGeometry>
        </mxCell>
        <mxCell id="IDN8DsUS1KAStJDrSiUo-17" value="user_last_name" style="shape=partialRectangle;connectable=0;fillColor=none;top=0;left=0;bottom=0;right=0;align=left;spacingLeft=6;overflow=hidden;fontSize=10;" parent="IDN8DsUS1KAStJDrSiUo-15" vertex="1">
          <mxGeometry x="30" width="89" height="20" as="geometry">
            <mxRectangle width="89" height="20" as="alternateBounds" />
          </mxGeometry>
        </mxCell>
        <mxCell id="IDN8DsUS1KAStJDrSiUo-22" value="" style="shape=tableRow;horizontal=0;startSize=0;swimlaneHead=0;swimlaneBody=0;fillColor=none;collapsible=0;dropTarget=0;points=[[0,0.5],[1,0.5]];portConstraint=eastwest;top=0;left=0;right=0;bottom=0;" parent="IDN8DsUS1KAStJDrSiUo-8" vertex="1">
          <mxGeometry y="80" width="119" height="20" as="geometry" />
        </mxCell>
        <mxCell id="IDN8DsUS1KAStJDrSiUo-23" value="FK" style="shape=partialRectangle;connectable=0;fillColor=none;top=0;left=0;bottom=0;right=0;fontStyle=0;overflow=hidden;whiteSpace=wrap;html=1;fontColor=#97D077;" parent="IDN8DsUS1KAStJDrSiUo-22" vertex="1">
          <mxGeometry width="30" height="20" as="geometry">
            <mxRectangle width="30" height="20" as="alternateBounds" />
          </mxGeometry>
        </mxCell>
        <mxCell id="IDN8DsUS1KAStJDrSiUo-24" value="role_id" style="shape=partialRectangle;connectable=0;fillColor=none;top=0;left=0;bottom=0;right=0;align=left;spacingLeft=6;fontStyle=0;overflow=hidden;whiteSpace=wrap;html=1;fontColor=#97D077;" parent="IDN8DsUS1KAStJDrSiUo-22" vertex="1">
          <mxGeometry x="30" width="89" height="20" as="geometry">
            <mxRectangle width="89" height="20" as="alternateBounds" />
          </mxGeometry>
        </mxCell>
        <mxCell id="IDN8DsUS1KAStJDrSiUo-30" value="" style="shape=tableRow;horizontal=0;startSize=0;swimlaneHead=0;swimlaneBody=0;fillColor=none;collapsible=0;dropTarget=0;points=[[0,0.5],[1,0.5]];portConstraint=eastwest;top=0;left=0;right=0;bottom=0;fontColor=#97D077;" parent="IDN8DsUS1KAStJDrSiUo-8" vertex="1">
          <mxGeometry y="100" width="119" height="20" as="geometry" />
        </mxCell>
        <mxCell id="IDN8DsUS1KAStJDrSiUo-31" value="FK" style="shape=partialRectangle;connectable=0;fillColor=none;top=0;left=0;bottom=0;right=0;fontStyle=0;overflow=hidden;whiteSpace=wrap;html=1;fontColor=#97D077;" parent="IDN8DsUS1KAStJDrSiUo-30" vertex="1">
          <mxGeometry width="30" height="20" as="geometry">
            <mxRectangle width="30" height="20" as="alternateBounds" />
          </mxGeometry>
        </mxCell>
        <mxCell id="IDN8DsUS1KAStJDrSiUo-32" value="ticket_id" style="shape=partialRectangle;connectable=0;fillColor=none;top=0;left=0;bottom=0;right=0;align=left;spacingLeft=6;fontStyle=0;overflow=hidden;whiteSpace=wrap;html=1;fontColor=#97D077;" parent="IDN8DsUS1KAStJDrSiUo-30" vertex="1">
          <mxGeometry x="30" width="89" height="20" as="geometry">
            <mxRectangle width="89" height="20" as="alternateBounds" />
          </mxGeometry>
        </mxCell>
        <mxCell id="IDN8DsUS1KAStJDrSiUo-98" value="tickets" style="shape=table;startSize=20;container=1;collapsible=1;childLayout=tableLayout;fixedRows=1;rowLines=0;fontStyle=1;align=center;resizeLast=1;html=1;strokeColor=#4D4D4D;fillColor=#4D4D4D;" parent="1" vertex="1">
          <mxGeometry x="440" y="160" width="120" height="100" as="geometry" />
        </mxCell>
        <mxCell id="IDN8DsUS1KAStJDrSiUo-99" value="" style="shape=tableRow;horizontal=0;startSize=0;swimlaneHead=0;swimlaneBody=0;fillColor=none;collapsible=0;dropTarget=0;points=[[0,0.5],[1,0.5]];portConstraint=eastwest;top=0;left=0;right=0;bottom=1;" parent="IDN8DsUS1KAStJDrSiUo-98" vertex="1">
          <mxGeometry y="20" width="120" height="20" as="geometry" />
        </mxCell>
        <mxCell id="IDN8DsUS1KAStJDrSiUo-100" value="PK" style="shape=partialRectangle;connectable=0;fillColor=none;top=0;left=0;bottom=0;right=0;fontStyle=1;overflow=hidden;whiteSpace=wrap;html=1;fontColor=#7EA6E0;" parent="IDN8DsUS1KAStJDrSiUo-99" vertex="1">
          <mxGeometry width="30" height="20" as="geometry">
            <mxRectangle width="30" height="20" as="alternateBounds" />
          </mxGeometry>
        </mxCell>
        <mxCell id="IDN8DsUS1KAStJDrSiUo-101" value="&lt;div style=&quot;&quot;&gt;&lt;span style=&quot;text-wrap: nowrap;&quot;&gt;&lt;font style=&quot;font-size: 12px;&quot;&gt;ticket_id&lt;/font&gt;&lt;/span&gt;&lt;br style=&quot;font-size: 8px;&quot;&gt;&lt;/div&gt;" style="shape=partialRectangle;connectable=0;fillColor=none;top=0;left=0;bottom=0;right=0;align=left;spacingLeft=6;fontStyle=1;overflow=hidden;whiteSpace=wrap;html=1;fontColor=#7EA6E0;fontSize=8;" parent="IDN8DsUS1KAStJDrSiUo-99" vertex="1">
          <mxGeometry x="30" width="90" height="20" as="geometry">
            <mxRectangle width="90" height="20" as="alternateBounds" />
          </mxGeometry>
        </mxCell>
        <mxCell id="IDN8DsUS1KAStJDrSiUo-102" value="" style="shape=tableRow;horizontal=0;startSize=0;swimlaneHead=0;swimlaneBody=0;fillColor=none;collapsible=0;dropTarget=0;points=[[0,0.5],[1,0.5]];portConstraint=eastwest;top=0;left=0;right=0;bottom=0;" parent="IDN8DsUS1KAStJDrSiUo-98" vertex="1">
          <mxGeometry y="40" width="120" height="20" as="geometry" />
        </mxCell>
        <mxCell id="IDN8DsUS1KAStJDrSiUo-103" value="" style="shape=partialRectangle;connectable=0;fillColor=none;top=0;left=0;bottom=0;right=0;editable=1;overflow=hidden;whiteSpace=wrap;html=1;" parent="IDN8DsUS1KAStJDrSiUo-102" vertex="1">
          <mxGeometry width="30" height="20" as="geometry">
            <mxRectangle width="30" height="20" as="alternateBounds" />
          </mxGeometry>
        </mxCell>
        <mxCell id="IDN8DsUS1KAStJDrSiUo-104" value="ticket_name" style="shape=partialRectangle;connectable=0;fillColor=none;top=0;left=0;bottom=0;right=0;align=left;spacingLeft=6;overflow=hidden;whiteSpace=wrap;html=1;fontSize=12;" parent="IDN8DsUS1KAStJDrSiUo-102" vertex="1">
          <mxGeometry x="30" width="90" height="20" as="geometry">
            <mxRectangle width="90" height="20" as="alternateBounds" />
          </mxGeometry>
        </mxCell>
        <mxCell id="IDN8DsUS1KAStJDrSiUo-105" value="" style="shape=tableRow;horizontal=0;startSize=0;swimlaneHead=0;swimlaneBody=0;fillColor=none;collapsible=0;dropTarget=0;points=[[0,0.5],[1,0.5]];portConstraint=eastwest;top=0;left=0;right=0;bottom=0;" parent="IDN8DsUS1KAStJDrSiUo-98" vertex="1">
          <mxGeometry y="60" width="120" height="20" as="geometry" />
        </mxCell>
        <mxCell id="IDN8DsUS1KAStJDrSiUo-106" value="FK" style="shape=partialRectangle;connectable=0;fillColor=none;top=0;left=0;bottom=0;right=0;fontStyle=0;overflow=hidden;whiteSpace=wrap;html=1;fontColor=#97D077;" parent="IDN8DsUS1KAStJDrSiUo-105" vertex="1">
          <mxGeometry width="30" height="20" as="geometry">
            <mxRectangle width="30" height="20" as="alternateBounds" />
          </mxGeometry>
        </mxCell>
        <mxCell id="IDN8DsUS1KAStJDrSiUo-107" value="state_id" style="shape=partialRectangle;connectable=0;fillColor=none;top=0;left=0;bottom=0;right=0;align=left;spacingLeft=6;fontStyle=0;overflow=hidden;whiteSpace=wrap;html=1;fontColor=#97D077;" parent="IDN8DsUS1KAStJDrSiUo-105" vertex="1">
          <mxGeometry x="30" width="90" height="20" as="geometry">
            <mxRectangle width="90" height="20" as="alternateBounds" />
          </mxGeometry>
        </mxCell>
        <mxCell id="IDN8DsUS1KAStJDrSiUo-108" value="" style="shape=tableRow;horizontal=0;startSize=0;swimlaneHead=0;swimlaneBody=0;fillColor=none;collapsible=0;dropTarget=0;points=[[0,0.5],[1,0.5]];portConstraint=eastwest;top=0;left=0;right=0;bottom=0;" parent="IDN8DsUS1KAStJDrSiUo-98" vertex="1">
          <mxGeometry y="80" width="120" height="20" as="geometry" />
        </mxCell>
        <mxCell id="IDN8DsUS1KAStJDrSiUo-109" value="FK" style="shape=partialRectangle;connectable=0;fillColor=none;top=0;left=0;bottom=0;right=0;fontStyle=0;overflow=hidden;whiteSpace=wrap;html=1;fontColor=#97D077;" parent="IDN8DsUS1KAStJDrSiUo-108" vertex="1">
          <mxGeometry width="30" height="20" as="geometry">
            <mxRectangle width="30" height="20" as="alternateBounds" />
          </mxGeometry>
        </mxCell>
        <mxCell id="IDN8DsUS1KAStJDrSiUo-110" value="comment_id" style="shape=partialRectangle;connectable=0;fillColor=none;top=0;left=0;bottom=0;right=0;align=left;spacingLeft=6;fontStyle=0;overflow=hidden;whiteSpace=wrap;html=1;fontColor=#97D077;" parent="IDN8DsUS1KAStJDrSiUo-108" vertex="1">
          <mxGeometry x="30" width="90" height="20" as="geometry">
            <mxRectangle width="90" height="20" as="alternateBounds" />
          </mxGeometry>
        </mxCell>
        <mxCell id="IDN8DsUS1KAStJDrSiUo-111" style="edgeStyle=none;curved=1;rounded=0;orthogonalLoop=1;jettySize=auto;html=1;entryX=0;entryY=0.5;entryDx=0;entryDy=0;fontSize=12;startSize=8;endSize=8;" parent="IDN8DsUS1KAStJDrSiUo-98" source="IDN8DsUS1KAStJDrSiUo-108" target="IDN8DsUS1KAStJDrSiUo-108" edge="1">
          <mxGeometry relative="1" as="geometry" />
        </mxCell>
        <mxCell id="IDN8DsUS1KAStJDrSiUo-115" value="states" style="shape=table;startSize=20;container=1;collapsible=1;childLayout=tableLayout;fixedRows=1;rowLines=0;fontStyle=1;align=center;resizeLast=1;html=1;strokeColor=#4D4D4D;fillColor=#4D4D4D;" parent="1" vertex="1">
          <mxGeometry x="40" y="200" width="119" height="60" as="geometry" />
        </mxCell>
        <mxCell id="IDN8DsUS1KAStJDrSiUo-116" value="" style="shape=tableRow;horizontal=0;startSize=0;swimlaneHead=0;swimlaneBody=0;fillColor=none;collapsible=0;dropTarget=0;points=[[0,0.5],[1,0.5]];portConstraint=eastwest;top=0;left=0;right=0;bottom=1;" parent="IDN8DsUS1KAStJDrSiUo-115" vertex="1">
          <mxGeometry y="20" width="119" height="20" as="geometry" />
        </mxCell>
        <mxCell id="IDN8DsUS1KAStJDrSiUo-117" value="PK" style="shape=partialRectangle;connectable=0;fillColor=none;top=0;left=0;bottom=0;right=0;fontStyle=1;overflow=hidden;whiteSpace=wrap;html=1;fontColor=#7EA6E0;" parent="IDN8DsUS1KAStJDrSiUo-116" vertex="1">
          <mxGeometry width="30" height="20" as="geometry">
            <mxRectangle width="30" height="20" as="alternateBounds" />
          </mxGeometry>
        </mxCell>
        <mxCell id="IDN8DsUS1KAStJDrSiUo-118" value="&lt;div style=&quot;&quot;&gt;&lt;span style=&quot;text-wrap: nowrap;&quot;&gt;&lt;font style=&quot;font-size: 12px;&quot;&gt;state_id&lt;/font&gt;&lt;/span&gt;&lt;br style=&quot;font-size: 8px;&quot;&gt;&lt;/div&gt;" style="shape=partialRectangle;connectable=0;fillColor=none;top=0;left=0;bottom=0;right=0;align=left;spacingLeft=6;fontStyle=1;overflow=hidden;whiteSpace=wrap;html=1;fontColor=#7EA6E0;fontSize=8;" parent="IDN8DsUS1KAStJDrSiUo-116" vertex="1">
          <mxGeometry x="30" width="89" height="20" as="geometry">
            <mxRectangle width="89" height="20" as="alternateBounds" />
          </mxGeometry>
        </mxCell>
        <mxCell id="IDN8DsUS1KAStJDrSiUo-119" value="" style="shape=tableRow;horizontal=0;startSize=0;swimlaneHead=0;swimlaneBody=0;fillColor=none;collapsible=0;dropTarget=0;points=[[0,0.5],[1,0.5]];portConstraint=eastwest;top=0;left=0;right=0;bottom=0;" parent="IDN8DsUS1KAStJDrSiUo-115" vertex="1">
          <mxGeometry y="40" width="119" height="20" as="geometry" />
        </mxCell>
        <mxCell id="IDN8DsUS1KAStJDrSiUo-120" value="" style="shape=partialRectangle;connectable=0;fillColor=none;top=0;left=0;bottom=0;right=0;editable=1;overflow=hidden;whiteSpace=wrap;html=1;" parent="IDN8DsUS1KAStJDrSiUo-119" vertex="1">
          <mxGeometry width="30" height="20" as="geometry">
            <mxRectangle width="30" height="20" as="alternateBounds" />
          </mxGeometry>
        </mxCell>
        <mxCell id="IDN8DsUS1KAStJDrSiUo-121" value="&lt;font style=&quot;font-size: 12px;&quot;&gt;state_name&lt;/font&gt;" style="shape=partialRectangle;connectable=0;fillColor=none;top=0;left=0;bottom=0;right=0;align=left;spacingLeft=6;overflow=hidden;whiteSpace=wrap;html=1;fontSize=8;" parent="IDN8DsUS1KAStJDrSiUo-119" vertex="1">
          <mxGeometry x="30" width="89" height="20" as="geometry">
            <mxRectangle width="89" height="20" as="alternateBounds" />
          </mxGeometry>
        </mxCell>
        <mxCell id="IDN8DsUS1KAStJDrSiUo-122" value="" style="edgeStyle=orthogonalEdgeStyle;fontSize=12;html=1;endArrow=ERoneToMany;rounded=0;startSize=8;endSize=8;" parent="1" source="IDN8DsUS1KAStJDrSiUo-116" target="IDN8DsUS1KAStJDrSiUo-105" edge="1">
          <mxGeometry width="100" height="100" relative="1" as="geometry">
            <mxPoint x="460" y="590" as="sourcePoint" />
            <mxPoint x="560" y="490" as="targetPoint" />
          </mxGeometry>
        </mxCell>
        <mxCell id="645nlKc3v9NmKqDAGoy0-3" value="comments" style="shape=table;startSize=20;container=1;collapsible=1;childLayout=tableLayout;fixedRows=1;rowLines=0;fontStyle=1;align=center;resizeLast=1;html=1;strokeColor=#4D4D4D;fillColor=#4D4D4D;" parent="1" vertex="1">
          <mxGeometry x="37" y="300" width="119" height="60" as="geometry" />
        </mxCell>
        <mxCell id="645nlKc3v9NmKqDAGoy0-4" value="" style="shape=tableRow;horizontal=0;startSize=0;swimlaneHead=0;swimlaneBody=0;fillColor=none;collapsible=0;dropTarget=0;points=[[0,0.5],[1,0.5]];portConstraint=eastwest;top=0;left=0;right=0;bottom=1;" parent="645nlKc3v9NmKqDAGoy0-3" vertex="1">
          <mxGeometry y="20" width="119" height="20" as="geometry" />
        </mxCell>
        <mxCell id="645nlKc3v9NmKqDAGoy0-5" value="PK" style="shape=partialRectangle;connectable=0;fillColor=none;top=0;left=0;bottom=0;right=0;fontStyle=1;overflow=hidden;whiteSpace=wrap;html=1;fontColor=#7EA6E0;" parent="645nlKc3v9NmKqDAGoy0-4" vertex="1">
          <mxGeometry width="30" height="20" as="geometry">
            <mxRectangle width="30" height="20" as="alternateBounds" />
          </mxGeometry>
        </mxCell>
        <mxCell id="645nlKc3v9NmKqDAGoy0-6" value="&lt;div style=&quot;&quot;&gt;&lt;span style=&quot;text-wrap: nowrap;&quot;&gt;&lt;font style=&quot;font-size: 12px;&quot;&gt;comment_id&lt;/font&gt;&lt;/span&gt;&lt;br style=&quot;font-size: 8px;&quot;&gt;&lt;/div&gt;" style="shape=partialRectangle;connectable=0;fillColor=none;top=0;left=0;bottom=0;right=0;align=left;spacingLeft=6;fontStyle=1;overflow=hidden;whiteSpace=wrap;html=1;fontColor=#7EA6E0;fontSize=8;" parent="645nlKc3v9NmKqDAGoy0-4" vertex="1">
          <mxGeometry x="30" width="89" height="20" as="geometry">
            <mxRectangle width="89" height="20" as="alternateBounds" />
          </mxGeometry>
        </mxCell>
        <mxCell id="645nlKc3v9NmKqDAGoy0-7" value="" style="shape=tableRow;horizontal=0;startSize=0;swimlaneHead=0;swimlaneBody=0;fillColor=none;collapsible=0;dropTarget=0;points=[[0,0.5],[1,0.5]];portConstraint=eastwest;top=0;left=0;right=0;bottom=0;" parent="645nlKc3v9NmKqDAGoy0-3" vertex="1">
          <mxGeometry y="40" width="119" height="20" as="geometry" />
        </mxCell>
        <mxCell id="645nlKc3v9NmKqDAGoy0-8" value="" style="shape=partialRectangle;connectable=0;fillColor=none;top=0;left=0;bottom=0;right=0;editable=1;overflow=hidden;whiteSpace=wrap;html=1;" parent="645nlKc3v9NmKqDAGoy0-7" vertex="1">
          <mxGeometry width="30" height="20" as="geometry">
            <mxRectangle width="30" height="20" as="alternateBounds" />
          </mxGeometry>
        </mxCell>
        <mxCell id="645nlKc3v9NmKqDAGoy0-9" value="&lt;font style=&quot;font-size: 10px;&quot;&gt;comment_name&lt;/font&gt;" style="shape=partialRectangle;connectable=0;fillColor=none;top=0;left=0;bottom=0;right=0;align=left;spacingLeft=6;overflow=hidden;whiteSpace=wrap;html=1;fontSize=8;" parent="645nlKc3v9NmKqDAGoy0-7" vertex="1">
          <mxGeometry x="30" width="89" height="20" as="geometry">
            <mxRectangle width="89" height="20" as="alternateBounds" />
          </mxGeometry>
        </mxCell>
        <mxCell id="645nlKc3v9NmKqDAGoy0-11" value="" style="edgeStyle=entityRelationEdgeStyle;fontSize=12;html=1;endArrow=ERoneToMany;rounded=0;exitX=1;exitY=0.5;exitDx=0;exitDy=0;entryX=-0.035;entryY=0.498;entryDx=0;entryDy=0;entryPerimeter=0;" parent="1" source="645nlKc3v9NmKqDAGoy0-4" target="IDN8DsUS1KAStJDrSiUo-108" edge="1">
          <mxGeometry width="100" height="100" relative="1" as="geometry">
            <mxPoint x="360" y="260" as="sourcePoint" />
            <mxPoint x="460" y="160" as="targetPoint" />
          </mxGeometry>
        </mxCell>
        <mxCell id="lX8gxxOY03pmkpAvXktH-1" value="&lt;div&gt;&lt;span style=&quot;background-color: initial;&quot;&gt;users&lt;/span&gt;&lt;br&gt;&lt;/div&gt;" style="shape=table;startSize=20;container=1;collapsible=1;childLayout=tableLayout;fixedRows=1;rowLines=0;fontStyle=1;align=center;resizeLast=1;html=1;strokeColor=#4D4D4D;fillColor=#4D4D4D;" vertex="1" parent="1">
          <mxGeometry x="620" y="50" width="119" height="120" as="geometry" />
        </mxCell>
        <mxCell id="lX8gxxOY03pmkpAvXktH-2" value="" style="shape=tableRow;horizontal=0;startSize=0;swimlaneHead=0;swimlaneBody=0;fillColor=none;collapsible=0;dropTarget=0;points=[[0,0.5],[1,0.5]];portConstraint=eastwest;top=0;left=0;right=0;bottom=1;" vertex="1" parent="lX8gxxOY03pmkpAvXktH-1">
          <mxGeometry y="20" width="119" height="20" as="geometry" />
        </mxCell>
        <mxCell id="lX8gxxOY03pmkpAvXktH-3" value="PK" style="shape=partialRectangle;connectable=0;fillColor=none;top=0;left=0;bottom=0;right=0;fontStyle=1;overflow=hidden;whiteSpace=wrap;html=1;fontColor=#7EA6E0;" vertex="1" parent="lX8gxxOY03pmkpAvXktH-2">
          <mxGeometry width="30" height="20" as="geometry">
            <mxRectangle width="30" height="20" as="alternateBounds" />
          </mxGeometry>
        </mxCell>
        <mxCell id="lX8gxxOY03pmkpAvXktH-4" value="&lt;div&gt;&lt;span style=&quot;text-wrap: nowrap;&quot;&gt;&lt;font style=&quot;font-size: 12px;&quot;&gt;user_id&lt;/font&gt;&lt;/span&gt;&lt;br&gt;&lt;/div&gt;" style="shape=partialRectangle;connectable=0;fillColor=none;top=0;left=0;bottom=0;right=0;align=left;spacingLeft=6;fontStyle=1;overflow=hidden;whiteSpace=wrap;html=1;fontColor=#7EA6E0;" vertex="1" parent="lX8gxxOY03pmkpAvXktH-2">
          <mxGeometry x="30" width="89" height="20" as="geometry">
            <mxRectangle width="89" height="20" as="alternateBounds" />
          </mxGeometry>
        </mxCell>
        <mxCell id="lX8gxxOY03pmkpAvXktH-5" value="" style="shape=tableRow;horizontal=0;startSize=0;swimlaneHead=0;swimlaneBody=0;fillColor=none;collapsible=0;dropTarget=0;points=[[0,0.5],[1,0.5]];portConstraint=eastwest;top=0;left=0;right=0;bottom=0;" vertex="1" parent="lX8gxxOY03pmkpAvXktH-1">
          <mxGeometry y="40" width="119" height="20" as="geometry" />
        </mxCell>
        <mxCell id="lX8gxxOY03pmkpAvXktH-6" value="" style="shape=partialRectangle;connectable=0;fillColor=none;top=0;left=0;bottom=0;right=0;editable=1;overflow=hidden;whiteSpace=wrap;html=1;" vertex="1" parent="lX8gxxOY03pmkpAvXktH-5">
          <mxGeometry width="30" height="20" as="geometry">
            <mxRectangle width="30" height="20" as="alternateBounds" />
          </mxGeometry>
        </mxCell>
        <mxCell id="lX8gxxOY03pmkpAvXktH-7" value="user_first&lt;span style=&quot;background-color: initial; font-size: 10px;&quot;&gt;_name&lt;/span&gt;" style="shape=partialRectangle;connectable=0;fillColor=none;top=0;left=0;bottom=0;right=0;align=left;spacingLeft=6;overflow=hidden;whiteSpace=wrap;html=1;fontSize=10;" vertex="1" parent="lX8gxxOY03pmkpAvXktH-5">
          <mxGeometry x="30" width="89" height="20" as="geometry">
            <mxRectangle width="89" height="20" as="alternateBounds" />
          </mxGeometry>
        </mxCell>
        <mxCell id="lX8gxxOY03pmkpAvXktH-8" value="" style="shape=tableRow;horizontal=0;startSize=0;swimlaneHead=0;swimlaneBody=0;fillColor=none;collapsible=0;dropTarget=0;points=[[0,0.5],[1,0.5]];portConstraint=eastwest;top=0;left=0;right=0;bottom=0;" vertex="1" parent="lX8gxxOY03pmkpAvXktH-1">
          <mxGeometry y="60" width="119" height="20" as="geometry" />
        </mxCell>
        <mxCell id="lX8gxxOY03pmkpAvXktH-9" value="" style="shape=partialRectangle;connectable=0;fillColor=none;top=0;left=0;bottom=0;right=0;editable=1;overflow=hidden;" vertex="1" parent="lX8gxxOY03pmkpAvXktH-8">
          <mxGeometry width="30" height="20" as="geometry">
            <mxRectangle width="30" height="20" as="alternateBounds" />
          </mxGeometry>
        </mxCell>
        <mxCell id="lX8gxxOY03pmkpAvXktH-10" value="user_last_name" style="shape=partialRectangle;connectable=0;fillColor=none;top=0;left=0;bottom=0;right=0;align=left;spacingLeft=6;overflow=hidden;fontSize=10;" vertex="1" parent="lX8gxxOY03pmkpAvXktH-8">
          <mxGeometry x="30" width="89" height="20" as="geometry">
            <mxRectangle width="89" height="20" as="alternateBounds" />
          </mxGeometry>
        </mxCell>
        <mxCell id="lX8gxxOY03pmkpAvXktH-11" value="" style="shape=tableRow;horizontal=0;startSize=0;swimlaneHead=0;swimlaneBody=0;fillColor=none;collapsible=0;dropTarget=0;points=[[0,0.5],[1,0.5]];portConstraint=eastwest;top=0;left=0;right=0;bottom=0;" vertex="1" parent="lX8gxxOY03pmkpAvXktH-1">
          <mxGeometry y="80" width="119" height="20" as="geometry" />
        </mxCell>
        <mxCell id="lX8gxxOY03pmkpAvXktH-12" value="FK" style="shape=partialRectangle;connectable=0;fillColor=none;top=0;left=0;bottom=0;right=0;fontStyle=0;overflow=hidden;whiteSpace=wrap;html=1;fontColor=#97D077;" vertex="1" parent="lX8gxxOY03pmkpAvXktH-11">
          <mxGeometry width="30" height="20" as="geometry">
            <mxRectangle width="30" height="20" as="alternateBounds" />
          </mxGeometry>
        </mxCell>
        <mxCell id="lX8gxxOY03pmkpAvXktH-13" value="rolle bit" style="shape=partialRectangle;connectable=0;fillColor=none;top=0;left=0;bottom=0;right=0;align=left;spacingLeft=6;fontStyle=0;overflow=hidden;whiteSpace=wrap;html=1;fontColor=#97D077;" vertex="1" parent="lX8gxxOY03pmkpAvXktH-11">
          <mxGeometry x="30" width="89" height="20" as="geometry">
            <mxRectangle width="89" height="20" as="alternateBounds" />
          </mxGeometry>
        </mxCell>
        <mxCell id="lX8gxxOY03pmkpAvXktH-14" value="" style="shape=tableRow;horizontal=0;startSize=0;swimlaneHead=0;swimlaneBody=0;fillColor=none;collapsible=0;dropTarget=0;points=[[0,0.5],[1,0.5]];portConstraint=eastwest;top=0;left=0;right=0;bottom=0;fontColor=#97D077;" vertex="1" parent="lX8gxxOY03pmkpAvXktH-1">
          <mxGeometry y="100" width="119" height="20" as="geometry" />
        </mxCell>
        <mxCell id="lX8gxxOY03pmkpAvXktH-15" value="FK" style="shape=partialRectangle;connectable=0;fillColor=none;top=0;left=0;bottom=0;right=0;fontStyle=0;overflow=hidden;whiteSpace=wrap;html=1;fontColor=#97D077;" vertex="1" parent="lX8gxxOY03pmkpAvXktH-14">
          <mxGeometry width="30" height="20" as="geometry">
            <mxRectangle width="30" height="20" as="alternateBounds" />
          </mxGeometry>
        </mxCell>
        <mxCell id="lX8gxxOY03pmkpAvXktH-16" value="ticket_id" style="shape=partialRectangle;connectable=0;fillColor=none;top=0;left=0;bottom=0;right=0;align=left;spacingLeft=6;fontStyle=0;overflow=hidden;whiteSpace=wrap;html=1;fontColor=#97D077;" vertex="1" parent="lX8gxxOY03pmkpAvXktH-14">
          <mxGeometry x="30" width="89" height="20" as="geometry">
            <mxRectangle width="89" height="20" as="alternateBounds" />
          </mxGeometry>
        </mxCell>
        <mxCell id="lX8gxxOY03pmkpAvXktH-17" value="tickets" style="shape=table;startSize=20;container=1;collapsible=1;childLayout=tableLayout;fixedRows=1;rowLines=0;fontStyle=1;align=center;resizeLast=1;html=1;strokeColor=#4D4D4D;fillColor=#4D4D4D;" vertex="1" parent="1">
          <mxGeometry x="430" y="-40" width="120" height="160" as="geometry" />
        </mxCell>
        <mxCell id="lX8gxxOY03pmkpAvXktH-18" value="" style="shape=tableRow;horizontal=0;startSize=0;swimlaneHead=0;swimlaneBody=0;fillColor=none;collapsible=0;dropTarget=0;points=[[0,0.5],[1,0.5]];portConstraint=eastwest;top=0;left=0;right=0;bottom=1;" vertex="1" parent="lX8gxxOY03pmkpAvXktH-17">
          <mxGeometry y="20" width="120" height="20" as="geometry" />
        </mxCell>
        <mxCell id="lX8gxxOY03pmkpAvXktH-19" value="PK" style="shape=partialRectangle;connectable=0;fillColor=none;top=0;left=0;bottom=0;right=0;fontStyle=1;overflow=hidden;whiteSpace=wrap;html=1;fontColor=#7EA6E0;" vertex="1" parent="lX8gxxOY03pmkpAvXktH-18">
          <mxGeometry width="30" height="20" as="geometry">
            <mxRectangle width="30" height="20" as="alternateBounds" />
          </mxGeometry>
        </mxCell>
        <mxCell id="lX8gxxOY03pmkpAvXktH-20" value="&lt;div style=&quot;&quot;&gt;&lt;span style=&quot;text-wrap: nowrap;&quot;&gt;&lt;font style=&quot;font-size: 12px;&quot;&gt;ticket_id&lt;/font&gt;&lt;/span&gt;&lt;br style=&quot;font-size: 8px;&quot;&gt;&lt;/div&gt;" style="shape=partialRectangle;connectable=0;fillColor=none;top=0;left=0;bottom=0;right=0;align=left;spacingLeft=6;fontStyle=1;overflow=hidden;whiteSpace=wrap;html=1;fontColor=#7EA6E0;fontSize=8;" vertex="1" parent="lX8gxxOY03pmkpAvXktH-18">
          <mxGeometry x="30" width="90" height="20" as="geometry">
            <mxRectangle width="90" height="20" as="alternateBounds" />
          </mxGeometry>
        </mxCell>
        <mxCell id="lX8gxxOY03pmkpAvXktH-21" value="" style="shape=tableRow;horizontal=0;startSize=0;swimlaneHead=0;swimlaneBody=0;fillColor=none;collapsible=0;dropTarget=0;points=[[0,0.5],[1,0.5]];portConstraint=eastwest;top=0;left=0;right=0;bottom=0;" vertex="1" parent="lX8gxxOY03pmkpAvXktH-17">
          <mxGeometry y="40" width="120" height="20" as="geometry" />
        </mxCell>
        <mxCell id="lX8gxxOY03pmkpAvXktH-22" value="" style="shape=partialRectangle;connectable=0;fillColor=none;top=0;left=0;bottom=0;right=0;editable=1;overflow=hidden;whiteSpace=wrap;html=1;" vertex="1" parent="lX8gxxOY03pmkpAvXktH-21">
          <mxGeometry width="30" height="20" as="geometry">
            <mxRectangle width="30" height="20" as="alternateBounds" />
          </mxGeometry>
        </mxCell>
        <mxCell id="lX8gxxOY03pmkpAvXktH-23" value="ticket_name" style="shape=partialRectangle;connectable=0;fillColor=none;top=0;left=0;bottom=0;right=0;align=left;spacingLeft=6;overflow=hidden;whiteSpace=wrap;html=1;fontSize=12;" vertex="1" parent="lX8gxxOY03pmkpAvXktH-21">
          <mxGeometry x="30" width="90" height="20" as="geometry">
            <mxRectangle width="90" height="20" as="alternateBounds" />
          </mxGeometry>
        </mxCell>
        <mxCell id="lX8gxxOY03pmkpAvXktH-24" value="" style="shape=tableRow;horizontal=0;startSize=0;swimlaneHead=0;swimlaneBody=0;fillColor=none;collapsible=0;dropTarget=0;points=[[0,0.5],[1,0.5]];portConstraint=eastwest;top=0;left=0;right=0;bottom=0;" vertex="1" parent="lX8gxxOY03pmkpAvXktH-17">
          <mxGeometry y="60" width="120" height="20" as="geometry" />
        </mxCell>
        <mxCell id="lX8gxxOY03pmkpAvXktH-25" value="FK" style="shape=partialRectangle;connectable=0;fillColor=none;top=0;left=0;bottom=0;right=0;fontStyle=0;overflow=hidden;whiteSpace=wrap;html=1;fontColor=#97D077;" vertex="1" parent="lX8gxxOY03pmkpAvXktH-24">
          <mxGeometry width="30" height="20" as="geometry">
            <mxRectangle width="30" height="20" as="alternateBounds" />
          </mxGeometry>
        </mxCell>
        <mxCell id="lX8gxxOY03pmkpAvXktH-26" value="state_id" style="shape=partialRectangle;connectable=0;fillColor=none;top=0;left=0;bottom=0;right=0;align=left;spacingLeft=6;fontStyle=0;overflow=hidden;whiteSpace=wrap;html=1;fontColor=#97D077;" vertex="1" parent="lX8gxxOY03pmkpAvXktH-24">
          <mxGeometry x="30" width="90" height="20" as="geometry">
            <mxRectangle width="90" height="20" as="alternateBounds" />
          </mxGeometry>
        </mxCell>
        <mxCell id="lX8gxxOY03pmkpAvXktH-27" value="" style="shape=tableRow;horizontal=0;startSize=0;swimlaneHead=0;swimlaneBody=0;fillColor=none;collapsible=0;dropTarget=0;points=[[0,0.5],[1,0.5]];portConstraint=eastwest;top=0;left=0;right=0;bottom=0;" vertex="1" parent="lX8gxxOY03pmkpAvXktH-17">
          <mxGeometry y="80" width="120" height="20" as="geometry" />
        </mxCell>
        <mxCell id="lX8gxxOY03pmkpAvXktH-28" value="FK" style="shape=partialRectangle;connectable=0;fillColor=none;top=0;left=0;bottom=0;right=0;fontStyle=0;overflow=hidden;whiteSpace=wrap;html=1;fontColor=#97D077;" vertex="1" parent="lX8gxxOY03pmkpAvXktH-27">
          <mxGeometry width="30" height="20" as="geometry">
            <mxRectangle width="30" height="20" as="alternateBounds" />
          </mxGeometry>
        </mxCell>
        <mxCell id="lX8gxxOY03pmkpAvXktH-29" value="comment_id" style="shape=partialRectangle;connectable=0;fillColor=none;top=0;left=0;bottom=0;right=0;align=left;spacingLeft=6;fontStyle=0;overflow=hidden;whiteSpace=wrap;html=1;fontColor=#97D077;" vertex="1" parent="lX8gxxOY03pmkpAvXktH-27">
          <mxGeometry x="30" width="90" height="20" as="geometry">
            <mxRectangle width="90" height="20" as="alternateBounds" />
          </mxGeometry>
        </mxCell>
        <mxCell id="lX8gxxOY03pmkpAvXktH-30" style="edgeStyle=none;curved=1;rounded=0;orthogonalLoop=1;jettySize=auto;html=1;entryX=0;entryY=0.5;entryDx=0;entryDy=0;fontSize=12;startSize=8;endSize=8;" edge="1" parent="lX8gxxOY03pmkpAvXktH-17" source="lX8gxxOY03pmkpAvXktH-27" target="lX8gxxOY03pmkpAvXktH-27">
          <mxGeometry relative="1" as="geometry" />
        </mxCell>
        <mxCell id="lX8gxxOY03pmkpAvXktH-31" value="" style="shape=tableRow;horizontal=0;startSize=0;swimlaneHead=0;swimlaneBody=0;fillColor=none;collapsible=0;dropTarget=0;points=[[0,0.5],[1,0.5]];portConstraint=eastwest;top=0;left=0;right=0;bottom=0;" vertex="1" parent="lX8gxxOY03pmkpAvXktH-17">
          <mxGeometry y="100" width="120" height="30" as="geometry" />
        </mxCell>
        <mxCell id="lX8gxxOY03pmkpAvXktH-32" value="FK" style="shape=partialRectangle;connectable=0;fillColor=none;top=0;left=0;bottom=0;right=0;fontStyle=0;overflow=hidden;whiteSpace=wrap;html=1;" vertex="1" parent="lX8gxxOY03pmkpAvXktH-31">
          <mxGeometry width="30" height="30" as="geometry">
            <mxRectangle width="30" height="30" as="alternateBounds" />
          </mxGeometry>
        </mxCell>
        <mxCell id="lX8gxxOY03pmkpAvXktH-33" value="Ersteller_id" style="shape=partialRectangle;connectable=0;fillColor=none;top=0;left=0;bottom=0;right=0;align=left;spacingLeft=6;fontStyle=0;overflow=hidden;whiteSpace=wrap;html=1;" vertex="1" parent="lX8gxxOY03pmkpAvXktH-31">
          <mxGeometry x="30" width="90" height="30" as="geometry">
            <mxRectangle width="90" height="30" as="alternateBounds" />
          </mxGeometry>
        </mxCell>
        <mxCell id="lX8gxxOY03pmkpAvXktH-34" value="" style="shape=tableRow;horizontal=0;startSize=0;swimlaneHead=0;swimlaneBody=0;fillColor=none;collapsible=0;dropTarget=0;points=[[0,0.5],[1,0.5]];portConstraint=eastwest;top=0;left=0;right=0;bottom=0;" vertex="1" parent="lX8gxxOY03pmkpAvXktH-17">
          <mxGeometry y="130" width="120" height="30" as="geometry" />
        </mxCell>
        <mxCell id="lX8gxxOY03pmkpAvXktH-35" value="FK" style="shape=partialRectangle;connectable=0;fillColor=none;top=0;left=0;bottom=0;right=0;fontStyle=0;overflow=hidden;whiteSpace=wrap;html=1;" vertex="1" parent="lX8gxxOY03pmkpAvXktH-34">
          <mxGeometry width="30" height="30" as="geometry">
            <mxRectangle width="30" height="30" as="alternateBounds" />
          </mxGeometry>
        </mxCell>
        <mxCell id="lX8gxxOY03pmkpAvXktH-36" value="Bearbeiter_id" style="shape=partialRectangle;connectable=0;fillColor=none;top=0;left=0;bottom=0;right=0;align=left;spacingLeft=6;fontStyle=0;overflow=hidden;whiteSpace=wrap;html=1;" vertex="1" parent="lX8gxxOY03pmkpAvXktH-34">
          <mxGeometry x="30" width="90" height="30" as="geometry">
            <mxRectangle width="90" height="30" as="alternateBounds" />
          </mxGeometry>
        </mxCell>
        <mxCell id="lX8gxxOY03pmkpAvXktH-37" value="" style="edgeStyle=entityRelationEdgeStyle;fontSize=12;html=1;endArrow=ERoneToMany;rounded=0;" edge="1" parent="1" source="IDN8DsUS1KAStJDrSiUo-9" target="lX8gxxOY03pmkpAvXktH-31">
          <mxGeometry width="100" height="100" relative="1" as="geometry">
            <mxPoint x="370" y="187.5" as="sourcePoint" />
            <mxPoint x="420" y="80" as="targetPoint" />
          </mxGeometry>
        </mxCell>
        <mxCell id="lX8gxxOY03pmkpAvXktH-38" value="" style="edgeStyle=entityRelationEdgeStyle;fontSize=12;html=1;endArrow=ERoneToMany;rounded=0;" edge="1" parent="1" target="lX8gxxOY03pmkpAvXktH-34">
          <mxGeometry width="100" height="100" relative="1" as="geometry">
            <mxPoint x="370" y="80" as="sourcePoint" />
            <mxPoint x="413.9999999999998" y="90" as="targetPoint" />
            <Array as="points">
              <mxPoint x="384" y="145" />
            </Array>
          </mxGeometry>
        </mxCell>
      </root>
    </mxGraphModel>
  </diagram>
</mxfile>
